#N canvas 97 200 1368 408 12;
#X obj 760 362 ctlout;
#X floatatom 728 312 5 0 127 0 - - -;
#X floatatom 575 314 5 0 127 0 - - -;
#X obj 609 359 ctlout;
#X msg 823 312 1;
#X msg 779 312 1;
#X msg 672 313 1;
#X msg 628 314 11;
#X obj 920 362 ctlout;
#X floatatom 886 312 5 0 127 0 - - -;
#X msg 981 312 1;
#X msg 939 312 19;
#X obj 575 170 vsl 32 128 0 127 0 0 empty empty Expression 0 -9 0 10
-262144 -1 -1 11300 1;
#X obj 728 168 vsl 32 128 0 127 0 0 empty empty Dynamics 0 -9 0 10
-262144 -1 -1 10300 1;
#X obj 886 167 vsl 32 128 0 127 0 0 empty empty Reverb 0 -9 0 10 -262144
-1 -1 5300 1;
#X obj 1079 363 ctlout;
#X floatatom 1045 313 5 0 127 0 - - -;
#X msg 1140 313 1;
#X obj 1045 168 vsl 32 128 0 127 0 0 empty empty Volume 0 -9 0 10 -262144
-1 -1 7300 1;
#X msg 1098 313 7;
#X obj 575 9 receive fromGUI;
#X floatatom 575 116 5 0 0 0 - - -;
#X floatatom 728 122 5 0 0 0 - - -;
#X floatatom 886 125 5 0 0 0 - - -;
#X floatatom 1045 126 5 0 0 0 - - -;
#X text 731 11 see values coming in from GUI widgets;
#X obj 575 41 list trim;
#X obj 1101 22 loadbang;
#X obj 1101 223 trigger b b b b b b b b;
#X msg 1123 58 list /mySlider11 127;
#X obj 1123 183 send toGUI;
#X msg 1142 91 list /mySlider1 127;
#X msg 1161 123 list /mySlider19 0;
#X msg 1175 152 list /mySlider7 31;
#X obj 228 357 loadbang;
#X msg 11 226 0;
#X msg 151 228 1;
#X msg 295 229 2;
#X msg 434 230 3;
#X obj 575 69 route /myButton1 /myButton2 /myButton3 /myButton4 /mySlider11
/mySlider1 /mySlider19 /mySlider7;
#X obj 34 270 noteout;
#X obj 171 272 noteout;
#X obj 315 274 noteout;
#X obj 456 274 noteout;
#X msg 259 314 1;
#X obj 11 191 t b f;
#X obj 57 225 * 99;
#X obj 151 191 t b f;
#X obj 295 191 t b f;
#X obj 434 190 t b f;
#X obj 194 228 * 99;
#X obj 338 230 * 99;
#X obj 479 229 * 99;
#X connect 1 0 0 0;
#X connect 2 0 3 0;
#X connect 4 0 0 2;
#X connect 5 0 0 1;
#X connect 6 0 3 2;
#X connect 7 0 3 1;
#X connect 9 0 8 0;
#X connect 10 0 8 2;
#X connect 11 0 8 1;
#X connect 12 0 2 0;
#X connect 13 0 1 0;
#X connect 14 0 9 0;
#X connect 16 0 15 0;
#X connect 17 0 15 2;
#X connect 18 0 16 0;
#X connect 19 0 15 1;
#X connect 20 0 26 0;
#X connect 21 0 12 0;
#X connect 22 0 13 0;
#X connect 23 0 14 0;
#X connect 24 0 18 0;
#X connect 26 0 39 0;
#X connect 27 0 28 0;
#X connect 27 0 29 0;
#X connect 27 0 31 0;
#X connect 27 0 32 0;
#X connect 27 0 33 0;
#X connect 28 0 7 0;
#X connect 28 1 6 0;
#X connect 28 2 5 0;
#X connect 28 3 4 0;
#X connect 28 4 11 0;
#X connect 28 5 10 0;
#X connect 28 6 19 0;
#X connect 28 7 17 0;
#X connect 29 0 30 0;
#X connect 31 0 30 0;
#X connect 32 0 30 0;
#X connect 33 0 30 0;
#X connect 34 0 44 0;
#X connect 35 0 40 0;
#X connect 36 0 41 0;
#X connect 37 0 42 0;
#X connect 38 0 43 0;
#X connect 39 0 45 0;
#X connect 39 1 47 0;
#X connect 39 2 48 0;
#X connect 39 3 49 0;
#X connect 39 4 21 0;
#X connect 39 5 22 0;
#X connect 39 6 23 0;
#X connect 39 7 24 0;
#X connect 44 0 40 2;
#X connect 44 0 41 2;
#X connect 44 0 42 2;
#X connect 44 0 43 2;
#X connect 45 0 35 0;
#X connect 45 1 46 0;
#X connect 46 0 40 1;
#X connect 47 0 36 0;
#X connect 47 1 50 0;
#X connect 48 0 37 0;
#X connect 48 1 51 0;
#X connect 49 0 38 0;
#X connect 49 1 52 0;
#X connect 50 0 41 1;
#X connect 51 0 42 1;
#X connect 52 0 43 1;
